# xmcd
#
# Track frame offsets:
#	150
#	13023
#	29523
#	42316
#	56487
#	71396
#	83750
#	100234
#	111084
#	127667
#	141611
#	156749
#	170064
#	187878
#	200971
#	219732
#	231388
#	243208
#	254681
#	269802
#
# Disc length: 3823 seconds
#
# Revision: 875705442
# Processed by: cddbd v1.5.2PL0 Copyright (c) Steve Scherf et al.
# Submitted via: EZCDAudioConverter 8.0.5.1
#
DISCID=360eed14
DTITLE=Joey and Rory - The Singer And The Song: The Best Of Joey and Rory
DYEAR=2018
DGENRE=Gospel
TTITLE0=Rory Feek - To Do What I Do
TTITLE1=Joey and Rory - Heart Of The Wood [Live]
TTITLE2=Rory Feek - Teaching Me How To Love You
TTITLE3=Joey and Rory - Indiana Home [Live]
TTITLE4=Joey and Rory - Life Of A Song
TTITLE5=Joey and Rory - That's Important To Me [Live]
TTITLE6=Joey and Rory - A Bible And A Belt
TTITLE7=Joey and Rory - Your Man Loves You Honey
TTITLE8=Joey and Rory - If I Needed You
TTITLE9=Joey and Rory - In The Garden
TTITLE10=Joey and Rory - It Is Well With My Soul
TTITLE11=Joey and Rory - In The Time That You Gave Me
TTITLE12=Joey and Rory - When I'm Gone
TTITLE13=Joey and Rory - Hammerin' Nails
TTITLE14=Joey and Rory - Where Jesus Is
TTITLE15=Rory Feek - A Little More Country Than That [Live]
TTITLE16=Joey and Rory - My Life Is Based On A True Story
TTITLE17=Joey and Rory - Jesus Loves Me
TTITLE18=Joey and Rory - Born To Be Your Woman
TTITLE19=Joey and Rory - A Place In The Clouds
EXTD=
EXTT0=
EXTT1=
EXTT2=
EXTT3=
EXTT4=
EXTT5=
EXTT6=
EXTT7=
EXTT8=
EXTT9=
EXTT10=
EXTT11=
EXTT12=
EXTT13=
EXTT14=
EXTT15=
EXTT16=
EXTT17=
EXTT18=
EXTT19=
PLAYORDER=
